<svg xmlns="http://www.w3.org/2000/svg" viewBox="0 0 24 24">
  <path d="M11.654.174V2.377H8.93V3.39h2.725v2.203h1.101V3.39h2.725V2.377h-2.725V.174zM5.841 4.09V7.52H2.41v1.48h3.43v3.43h1.48V9H10.75V7.52H7.32V4.09zm12.317 0V7.52h-3.43v1.48h3.43v3.43h1.48V9h3.43V7.52h-3.43V4.09zM11.654 8.407v3.43H8.225v1.48h3.43v3.43h1.101v-3.43h3.43v-1.48h-3.43v-3.43zm-5.813 7.099v2.203H3.116v1.013H5.84v2.203h1.101v-2.203h2.726v-1.013H6.942v-2.203zm12.317 0v2.203h-2.725v1.013h2.725v2.203h1.101v-2.203h2.725v-1.013h-2.725v-2.203z"/>
</svg>
